<svg width="3354" height="1480" viewBox="0 0 3354 1480" fill="none" xmlns="http://www.w3.org/2000/svg">
<path d="M344.833 1480C275.76 1480 209.406 1464.95 145.771 1434.85C82.1302 1404.76 33.5417 1363.07 0 1309.79C8.875 1293.02 22.6875 1276.24 41.4375 1259.48C60.1875 1242.7 79.9219 1229.39 100.646 1219.52C113.464 1239.24 130.729 1259.22 152.438 1279.46C174.146 1299.68 201.276 1316.45 233.833 1329.77C266.385 1343.09 305.359 1349.75 350.75 1349.75C409.958 1349.75 458.552 1333.47 496.542 1300.92C534.526 1268.35 553.521 1224.93 553.521 1170.67C553.521 1115.42 533.542 1072.01 493.583 1040.44C453.625 1008.85 393.677 993.063 313.75 993.063H208.667C205.708 983.203 203.734 973.344 202.75 963.479C201.76 953.604 201.271 943.245 201.271 932.396C201.271 921.536 201.76 910.927 202.75 900.563C203.734 890.203 205.708 879.599 208.667 868.75H313.75C375.917 868.75 426.729 851.729 466.188 817.688C505.656 783.646 525.396 739 525.396 683.75C525.396 628.5 508.615 585.583 475.063 555C441.521 524.406 399.094 509.104 347.792 509.104C296.484 509.104 251.839 522.677 213.854 549.813C175.865 576.953 149.964 617.161 136.146 670.438C92.7396 669.453 51.3021 653.661 11.8333 623.063C23.6771 578.677 44.401 537.979 74 500.979C103.594 463.979 141.333 434.385 187.208 412.188C233.094 389.979 285.635 378.875 344.833 378.875C412.917 378.875 470.385 392.938 517.25 421.063C564.125 449.177 599.896 485.682 624.563 530.583C649.229 575.474 661.563 623.078 661.563 673.396C661.563 717.802 651.198 762.203 630.479 806.604C609.755 850.995 573.74 889.469 522.438 922.021C574.729 947.688 615.672 983.708 645.271 1030.08C674.865 1076.45 689.667 1128.74 689.667 1186.96C689.667 1233.33 676.839 1278.97 651.188 1323.85C625.531 1368.74 587.297 1405.99 536.479 1435.6C485.672 1465.2 421.792 1480 344.833 1480Z" fill="#0098EA"/>
<path d="M704.483 1480C691.649 1480 681.29 1474.07 673.399 1462.23C665.514 1450.4 661.566 1435.1 661.566 1416.35C661.566 1396.62 666.253 1381.08 675.628 1369.73C684.993 1358.39 697.566 1352.71 713.358 1352.71C746.899 1352.71 783.399 1339.89 822.858 1314.23C862.326 1288.58 899.826 1253.55 935.358 1209.15C929.441 1173.64 924.993 1130.22 922.024 1078.92C919.066 1027.61 917.092 963.479 916.108 886.521C915.118 809.552 914.628 714.828 914.628 602.354V417.354C914.628 370.979 916.358 328.557 919.816 290.083C923.274 251.599 929.441 217.063 938.316 186.479C957.066 122.344 984.941 75.2292 1021.94 45.1458C1058.94 15.0521 1103.09 0 1154.4 0C1228.4 0 1286.36 33.7917 1328.3 101.375C1370.22 168.958 1391.19 262.938 1391.19 383.313C1391.19 525.396 1363.57 671.182 1308.32 820.667C1253.07 970.141 1174.13 1112.95 1071.52 1249.1C1072.51 1251.08 1073.49 1253.55 1074.48 1256.52C1087.3 1288.09 1105.3 1312.27 1128.48 1329.04C1151.68 1345.81 1181.53 1354.19 1218.05 1354.19C1231.85 1354.19 1242.95 1359.86 1251.34 1371.21C1259.72 1382.56 1263.92 1398.1 1263.92 1417.83C1263.92 1459.28 1245.66 1480 1209.15 1480C1149.95 1480 1102.1 1467.67 1065.59 1443C1029.09 1418.33 1000.97 1387.25 981.233 1349.75C896.384 1436.58 804.134 1480 704.483 1480ZM1040.44 611.229C1040.44 728.646 1040.68 823.865 1041.17 896.875C1041.67 969.891 1042.9 1029.09 1044.88 1074.48C1191.89 830.771 1265.4 599.891 1265.4 381.833C1265.4 297.958 1255.77 233.828 1236.52 189.438C1217.28 145.036 1189.42 122.833 1152.92 122.833C1116.4 122.833 1088.53 146.021 1069.3 192.396C1050.06 238.771 1040.44 319.182 1040.44 433.625V611.229Z" fill="#0098EA"/>
<path d="M1305.36 1352.71C1338.9 1352.71 1371.7 1336.18 1403.77 1303.13C1435.84 1270.07 1462.73 1225.43 1484.44 1169.19C1483.45 1155.39 1482.96 1141.57 1482.96 1127.75C1482.96 1052.77 1497.76 986.167 1527.36 927.958C1556.95 869.74 1597.15 823.854 1647.96 790.313C1698.78 756.771 1756.75 740 1821.88 740C1856.4 740 1890.44 746.661 1923.98 759.979C1957.53 773.302 1985.66 791.307 2008.36 814V753.313C2017.23 750.354 2027.59 747.891 2039.42 745.917C2051.26 743.948 2063.61 742.958 2076.44 742.958C2100.12 742.958 2122.32 746.411 2143.04 753.313V1186.96C2143.04 1239.25 2151.18 1279.95 2167.46 1309.06C2183.74 1338.16 2211.11 1352.71 2249.59 1352.71C2266.36 1352.71 2277.71 1359.62 2283.63 1373.44C2289.55 1387.24 2292.52 1402.04 2292.52 1417.83C2292.52 1433.63 2288.33 1447.93 2279.94 1460.75C2271.55 1473.58 2257.98 1480 2239.23 1480C2142.53 1480 2077.91 1436.58 2045.36 1349.75C2016.74 1390.21 1980.97 1422.04 1938.04 1445.23C1895.13 1468.41 1847.52 1480 1795.23 1480C1738.01 1480 1687.44 1467.42 1643.52 1442.27C1599.62 1417.1 1563.86 1382.32 1536.23 1337.92C1475.07 1432.64 1394.65 1480 1295 1480C1282.17 1480 1271.81 1474.07 1263.92 1462.23C1256.03 1450.4 1252.09 1435.1 1252.09 1416.35C1252.09 1373.93 1269.85 1352.71 1305.36 1352.71ZM1620.59 1127.75C1620.59 1197.81 1636.62 1252.81 1668.69 1292.77C1700.76 1332.73 1744.91 1352.71 1801.15 1352.71C1863.32 1352.71 1913.39 1329.77 1951.38 1283.9C1989.36 1238.01 2008.36 1177.57 2008.36 1102.58V956.063C1988.62 929.427 1963.46 907.969 1932.88 891.688C1902.29 875.411 1870.72 867.271 1838.15 867.271C1795.73 867.271 1758.24 878.62 1725.67 901.313C1693.11 924.01 1667.46 954.844 1648.71 993.813C1629.96 1032.79 1620.59 1077.43 1620.59 1127.75Z" fill="#0098EA"/>
<path d="M2187.44 1352.71C2231.84 1352.71 2268.84 1333.47 2298.44 1295C2328.03 1256.52 2354.67 1209.16 2378.35 1152.92L2479 920.542C2510.57 849.516 2547.07 801.667 2588.5 777C2629.94 752.333 2673.85 740 2720.23 740C2767.59 740 2811.25 752.094 2851.21 776.271C2891.18 800.438 2924.48 833.24 2951.12 874.667C2977.76 833.24 3011.3 800.438 3051.75 776.271C3092.21 752.094 3137.59 740 3187.92 740C3218.5 740 3249.08 743.948 3279.67 751.833C3310.26 759.724 3334.93 770.083 3353.67 782.917C3353.67 801.656 3349.47 822.125 3341.08 844.333C3332.71 866.531 3323.09 883.057 3312.23 893.917C3288.55 885.031 3267.33 878.37 3248.58 873.938C3229.84 869.495 3212.09 867.271 3195.31 867.271C3143.02 867.271 3100.59 887.995 3068.02 929.438C3035.46 970.87 3019.19 1024.64 3019.19 1090.75C3019.19 1142.06 3028.07 1187.45 3045.83 1226.92C3063.59 1266.38 3088.01 1297.45 3119.08 1320.15C3150.17 1342.84 3185.94 1354.19 3226.39 1354.19C3239.23 1354.19 3249.59 1360.11 3257.48 1371.96C3265.36 1383.79 3269.31 1399.58 3269.31 1419.31C3269.31 1438.06 3264.62 1452.86 3255.25 1463.71C3245.87 1474.57 3232.8 1480 3216.04 1480C3153.87 1480 3099.6 1467.17 3053.23 1441.52C3006.85 1415.85 2970.34 1378.85 2943.71 1330.52C2912.13 1375.9 2873.41 1412.16 2827.52 1439.29C2781.64 1466.43 2732.07 1480 2678.79 1480C2643.27 1480 2606.77 1473.83 2569.27 1461.5C2531.78 1449.17 2503.17 1433.63 2483.44 1414.88C2484.42 1392.18 2490.34 1370.47 2501.19 1349.75C2512.05 1329.03 2525.86 1313.74 2542.64 1303.88C2588.02 1336.43 2631.92 1352.71 2674.35 1352.71C2743.42 1352.71 2797.69 1322.13 2837.17 1260.96C2868.73 1214.58 2884.52 1160.31 2884.52 1098.15C2884.52 1055.73 2876.87 1017.01 2861.58 981.979C2846.29 946.953 2826.06 919.078 2800.89 898.354C2775.74 877.635 2747.37 867.271 2715.79 867.271C2691.12 867.271 2668.92 874.427 2649.19 888.729C2629.46 903.036 2611.71 928.938 2595.92 966.438L2484.92 1225.44C2467.15 1268.84 2445.19 1310.04 2419.04 1349.02C2392.9 1387.99 2360.09 1419.57 2320.62 1443.75C2281.17 1467.92 2233.32 1480 2177.08 1480C2163.26 1480 2152.66 1473.33 2145.27 1460C2137.87 1446.68 2134.17 1432.14 2134.17 1416.35C2134.17 1399.58 2138.36 1384.78 2146.75 1371.96C2155.12 1359.13 2168.69 1352.71 2187.44 1352.71Z" fill="#0098EA"/>
</svg>
