<svg width="500" height="500" viewBox="0 0 500 500" fill="none" xmlns="http://www.w3.org/2000/svg">
    <mask id="mask0_91_36" style="mask-type:luminance" maskUnits="userSpaceOnUse" x="21" y="20"
        width="460" height="460">
        <path d="M21.354 20.3542H480.354V479.354H21.354V20.3542Z" fill="white" />
    </mask>
    <g mask="url(#mask0_91_36)">
        <path
            d="M365.818 20.3542H136.177C72.7603 20.3542 21.354 71.7605 21.354 135.177V364.818C21.354 428.229 72.7603 479.636 136.177 479.636H365.818C429.229 479.636 480.635 428.229 480.635 364.818V135.177C480.635 71.7605 429.229 20.3542 365.818 20.3542Z"
            fill="black" />
    </g>
    <mask id="mask1_91_36" style="mask-type:luminance" maskUnits="userSpaceOnUse" x="144" y="143"
        width="337" height="337">
        <path d="M144.213 143.214H480.354V479.354H144.213V143.214Z" fill="white" />
    </mask>
    <g mask="url(#mask1_91_36)">
        <mask id="mask2_91_36" style="mask-type:luminance" maskUnits="userSpaceOnUse" x="21" y="20"
            width="460" height="460">
            <path
                d="M365.818 20.3542H136.177C72.7603 20.3542 21.354 71.7605 21.354 135.177V364.818C21.354 428.229 72.7603 479.636 136.177 479.636H365.818C429.229 479.636 480.635 428.229 480.635 364.818V135.177C480.635 71.7605 429.229 20.3542 365.818 20.3542Z"
                fill="white" />
        </mask>
        <g mask="url(#mask2_91_36)">
            <path
                d="M522.682 308.88L357.401 143.599L144.604 356.396L300.156 511.948L452.302 460.917L522.682 308.88Z"
                fill="#424242" />
        </g>
    </g>
    <path
        d="M291.677 249.995L357.401 184.271C368.614 173.057 368.614 154.812 357.401 143.599C351.969 138.167 344.75 135.177 337.062 135.177C329.385 135.177 322.161 138.167 316.729 143.599L251.005 209.323L185.276 143.599C179.844 138.167 172.625 135.177 164.943 135.177C157.26 135.177 150.036 138.167 144.604 143.599C133.396 154.812 133.396 173.057 144.604 184.271L210.333 249.995L144.604 315.724C139.177 321.156 136.182 328.375 136.182 336.057C136.182 343.74 139.177 350.963 144.604 356.396C150.036 361.828 157.26 364.818 164.943 364.818C172.625 364.818 179.844 361.828 185.276 356.396L251.005 290.667L316.729 356.396C322.161 361.828 329.385 364.818 337.062 364.818C344.745 364.818 351.969 361.828 357.401 356.396C368.614 345.182 368.614 326.937 357.401 315.724L291.677 249.995Z"
        fill="white" />
</svg>