<svg width="300" height="100" viewBox="0 0 300 100" fill="none" xmlns="http://www.w3.org/2000/svg">
    <path
        d="M236.163 84.6095L63.7987 84.5366C44.6997 84.5314 29.2258 69.0418 29.231 49.9429C29.2414 30.8491 44.7258 15.37 63.8247 15.3804L236.195 15.4533C255.293 15.4637 270.767 30.9481 270.757 50.047C270.752 69.146 255.262 84.62 236.163 84.6095Z"
        fill="white" />
    <mask id="mask0_98_45" style="mask-type:luminance" maskUnits="userSpaceOnUse" x="26" y="14"
        width="248" height="72">
        <path d="M26.4082 14.3906H273.278V85.3542H26.4082V14.3906Z" fill="white" />
    </mask>
    <g mask="url(#mask0_98_45)">
        <path
            d="M236.163 81.8439C236.169 81.8439 236.174 81.8439 236.179 81.8439C253.716 81.8439 267.986 67.5835 267.992 50.047C268.002 32.5054 253.736 18.2241 236.195 18.2189L63.825 18.146C63.8197 18.146 63.8145 18.146 63.8093 18.146C46.2729 18.146 32.0072 32.4064 31.9968 49.9481C31.9916 58.4429 35.2989 66.4325 41.3041 72.4481C47.3145 78.4585 55.2989 81.771 63.7989 81.771L236.163 81.8439ZM236.179 87.3752C236.174 87.3752 236.169 87.3752 236.163 87.3752L63.7937 87.3022C53.8198 87.3022 44.4447 83.4116 37.3927 76.3543C30.3406 69.297 26.4604 59.9168 26.4656 49.9429C26.4708 39.9689 30.3614 30.5939 37.4135 23.5418C44.4708 16.495 53.8406 12.6147 63.8093 12.6147C63.8145 12.6147 63.8197 12.6147 63.825 12.6147L236.195 12.6877C246.169 12.6929 255.549 16.5783 262.596 23.6356C269.648 30.6929 273.528 40.0731 273.523 50.047C273.518 60.021 269.632 69.4012 262.575 76.4481C255.523 83.495 246.148 87.3752 236.179 87.3752Z"
            fill="#0098EA" />
    </g>
    <path
        d="M253.288 46.3488L243.512 36.5728L239.866 40.2186L249.642 49.9946L239.866 59.7707L243.512 63.4165L256.934 49.9946L253.288 46.3488Z"
        fill="#0098EA" />
    <path
        d="M72.1388 40.8337C71.4722 40.016 70.6493 39.3753 69.6805 38.917C68.7065 38.4587 67.7222 38.2295 66.7222 38.2295C64.6388 38.2295 62.9097 39.0576 61.5347 40.7087C60.1701 42.3649 59.493 44.3649 59.493 46.7087C59.493 49.016 60.1857 50.9743 61.5763 52.5837C62.9618 54.1826 64.6701 54.9795 66.7013 54.9795C67.743 54.9795 68.743 54.7399 69.7013 54.2503C70.6597 53.766 71.4722 53.141 72.1388 52.3753V58.0837C71.2326 58.516 70.3315 58.8649 69.4305 59.1253C68.5243 59.4014 67.5763 59.542 66.5763 59.542C64.394 59.542 62.394 58.9899 60.5763 57.8962C58.769 56.7868 57.3107 55.2295 56.2013 53.2295C55.0868 51.2295 54.5347 49.0837 54.5347 46.792C54.5347 44.4066 55.0659 42.1982 56.1388 40.167C57.2065 38.141 58.6649 36.5524 60.5138 35.3962C62.3732 34.2451 64.4201 33.667 66.6597 33.667C67.644 33.667 68.5972 33.792 69.5138 34.042C70.4409 34.292 71.3159 34.6462 72.1388 35.1045V40.8337Z"
        fill="#0098EA" />
    <path
        d="M74.062 50.9167C74.062 48.3906 74.8537 46.3333 76.437 44.75C78.0308 43.1667 80.0464 42.375 82.4787 42.375C84.9474 42.375 86.9683 43.1823 88.5412 44.7917C90.1089 46.3906 90.8953 48.4323 90.8953 50.9167C90.8953 53.4167 90.1037 55.4583 88.5203 57.0417C86.9474 58.625 84.937 59.4167 82.4787 59.4167C80.0203 59.4167 77.9995 58.6198 76.4162 57.0208C74.8433 55.4271 74.062 53.3906 74.062 50.9167ZM82.437 46.4167C81.4214 46.4167 80.5412 46.8542 79.7912 47.7292C79.0516 48.6042 78.687 49.6667 78.687 50.9167C78.687 52.1146 79.0516 53.1563 79.7912 54.0417C80.5412 54.9323 81.437 55.375 82.4787 55.375C83.562 55.375 84.4578 54.9323 85.1662 54.0417C85.8849 53.1563 86.2495 52.1146 86.2495 50.9167C86.2495 49.7396 85.8953 48.6979 85.187 47.7917C84.4891 46.875 83.5724 46.4167 82.437 46.4167Z"
        fill="#0098EA" />
    <path
        d="M107.383 58.8958H102.82V49.6458C102.82 48.4688 102.643 47.5729 102.3 46.9583C101.951 46.3333 101.3 46.0208 100.341 46.0208C99.4663 46.0208 98.784 46.3646 98.2996 47.0417C97.8257 47.724 97.5913 48.9115 97.5913 50.6042V58.8958H93.0288V42.8958H97.5913V44.3542H97.6538C98.1382 43.6354 98.7476 43.125 99.4871 42.8333C100.222 42.5312 101.008 42.375 101.841 42.375C103.685 42.375 105.07 42.9375 105.987 44.0625C106.914 45.1771 107.383 46.8125 107.383 48.9792V58.8958Z"
        fill="#0098EA" />
    <path
        d="M113.443 42.896L117.193 51.9168L120.485 42.896H125.464L118.11 59.2293H115.755L108.422 42.896H113.443Z"
        fill="#0098EA" />
    <path
        d="M130.224 51.625C130.224 52.9479 130.5 53.9948 131.058 54.7708C131.625 55.5521 132.402 55.9375 133.391 55.9375C134.152 55.9375 134.777 55.7292 135.266 55.3125C135.75 54.8958 136.146 54.375 136.454 53.75L140.662 54.4375C140.089 56.0625 139.162 57.3021 137.87 58.1458C136.579 58.9896 135.084 59.4167 133.391 59.4167C131.016 59.4167 129.084 58.6458 127.599 57.1042C126.125 55.5625 125.391 53.5417 125.391 51.0417C125.391 48.4063 126.084 46.3021 127.474 44.7292C128.875 43.1615 130.771 42.375 133.162 42.375C135.547 42.375 137.412 43.1458 138.745 44.6875C140.089 46.2292 140.766 48.4115 140.766 51.2292V51.625H130.224ZM136.454 48.7917C136.297 47.7917 135.938 47.0104 135.37 46.4375C134.813 45.8542 134.152 45.5625 133.391 45.5625C132.667 45.5625 132.021 45.8281 131.454 46.3542C130.896 46.8698 130.527 47.6823 130.349 48.7917H136.454Z"
        fill="#0098EA" />
    <path
        d="M152.826 47C152.253 46.6146 151.623 46.4167 150.93 46.4167C149.748 46.4167 148.867 46.8125 148.284 47.6042C147.711 48.3958 147.43 49.7031 147.43 51.5208V58.8958H142.867V42.8958H147.43V44.5417H147.492C147.951 43.849 148.513 43.3125 149.18 42.9375C149.857 42.5625 150.623 42.375 151.472 42.375C152.107 42.3906 152.742 42.5156 153.367 42.75L152.826 47Z"
        fill="#0098EA" />
    <path
        d="M159.955 37.4795V42.8962H162.768V46.7295H159.955V58.8962H155.393V46.7295H153.83V42.8962H155.393V37.4795H159.955Z"
        fill="#0098EA" />
    <path
        d="M187.536 58.8958H182.973V49.6458C182.973 48.4688 182.796 47.5729 182.452 46.9583C182.103 46.3333 181.452 46.0208 180.494 46.0208C179.619 46.0208 178.937 46.3646 178.452 47.0417C177.978 47.724 177.744 48.9115 177.744 50.6042V58.8958H173.181V42.8958H177.744V44.3542H177.806C178.291 43.6354 178.9 43.125 179.64 42.8333C180.374 42.5312 181.161 42.375 181.994 42.375C183.838 42.375 185.223 42.9375 186.14 44.0625C187.067 45.1771 187.536 46.8125 187.536 48.9792V58.8958Z"
        fill="#0098EA" />
    <path
        d="M189.679 50.9167C189.679 48.3906 190.471 46.3333 192.054 44.75C193.648 43.1667 195.663 42.375 198.096 42.375C200.564 42.375 202.585 43.1823 204.158 44.7917C205.726 46.3906 206.512 48.4323 206.512 50.9167C206.512 53.4167 205.721 55.4583 204.137 57.0417C202.564 58.625 200.554 59.4167 198.096 59.4167C195.637 59.4167 193.616 58.6198 192.033 57.0208C190.46 55.4271 189.679 53.3906 189.679 50.9167ZM198.054 46.4167C197.038 46.4167 196.158 46.8542 195.408 47.7292C194.669 48.6042 194.304 49.6667 194.304 50.9167C194.304 52.1146 194.669 53.1563 195.408 54.0417C196.158 54.9323 197.054 55.375 198.096 55.375C199.179 55.375 200.075 54.9323 200.783 54.0417C201.502 53.1563 201.866 52.1146 201.866 50.9167C201.866 49.7396 201.512 48.6979 200.804 47.7917C200.106 46.875 199.189 46.4167 198.054 46.4167Z"
        fill="#0098EA" />
    <path
        d="M220.854 42.375L224.791 52.25L228.187 42.8958H233.146L225.708 59.2292H223.396L219.958 49.4792L216.146 59.2292H213.812L206.437 42.8958H211.416L214.75 52.1042L218.666 42.375H220.854Z"
        fill="#0098EA" />
</svg>