<svg width="256" height="256" viewBox="0 0 256 256" fill="none" xmlns="http://www.w3.org/2000/svg">
    <path
        d="M55.3532 254.593H159.188C177.268 254.593 191.973 239.886 191.973 221.809V212.851H200.931C219.01 212.851 233.715 198.143 233.715 180.067V34.4833C233.721 16.4009 219.013 1.69339 200.934 1.69339H97.0985C79.019 1.69339 64.3114 16.4009 64.3114 34.4805V43.4388H55.3532C37.2736 43.4388 22.5661 58.1435 22.5661 76.223V221.809C22.5661 239.886 37.2736 254.593 55.3532 254.593ZM69.9314 34.4805C69.9314 19.5004 82.1184 7.31339 97.0985 7.31339H200.934C215.914 7.31339 228.098 19.5004 228.098 34.4805V180.064C228.098 195.044 215.911 207.228 200.934 207.228H191.975V76.223C191.975 58.1435 177.268 43.4388 159.191 43.4388H69.9343V34.4805H69.9314ZM28.1861 76.223C28.1861 61.2457 40.373 49.0588 55.3532 49.0588H64.3114H159.188C174.168 49.0588 186.353 61.2457 186.353 76.223V212.848V221.806C186.355 236.786 174.168 248.973 159.188 248.973H55.3503C40.3702 248.973 28.1833 236.786 28.1833 221.809L28.1861 76.223Z"
        fill="white" />
</svg>