<svg width="189" height="19" viewBox="0 0 189 19" fill="none" xmlns="http://www.w3.org/2000/svg">
    <path
        d="M8.6757 17.4398C9.41007 17.3669 10.1965 17.1898 10.8267 16.7575L10.9517 16.6585C12.0924 16.1273 12.5195 14.5596 12.7226 13.2939C12.7226 12.9398 12.7226 12.6117 12.6965 12.2575L12.6236 10.9919C12.4205 10.7939 11.5611 9.75749 11.2799 9.37728C9.84237 9.37728 9.20695 9.4502 7.66528 9.50228C7.66528 10.2627 7.81633 12.1846 7.71737 12.7106C8.17049 12.7106 8.65487 12.7367 9.10799 12.7367C9.10799 12.9919 9.13403 13.7992 9.16008 13.9502L8.77987 14.0023C8.17049 14.3044 6.62883 14.3564 5.89966 13.9242C5.21216 13.5492 4.91007 12.8669 4.66007 12.1846C3.8007 10.9919 4.48299 9.27311 5.16528 8.31478C6.75903 6.16374 8.24862 5.3304 10.2226 4.59603C9.91528 4.0179 9.18612 2.60124 8.98299 1.79395L8.22258 1.71582L7.79549 1.79395C6.12362 2.16895 7.18612 1.86686 5.21216 2.39811C4.27987 2.9554 3.47258 3.68978 2.79028 4.54915C1.49862 6.2679 0.868408 8.43978 0.868408 10.5908C0.868408 13.2939 1.77466 15.721 4.1757 16.7575C5.44133 17.2887 7.44133 17.5648 8.6757 17.4398Z"
        fill="#0098EA" />
    <path
        d="M14.897 17.7415C14.9699 17.7415 15.048 17.7415 15.1209 17.7207C15.9074 17.4134 15.3241 17.6165 17.0428 17.2624C17.0428 17.2624 19.9022 16.8353 20.6366 16.7832C21.8709 16.7051 23.6418 16.4811 24.8293 16.429C24.7563 15.7728 24.7043 15.1165 24.6053 14.4551C24.3761 13.0905 24.8553 13.5957 23.897 13.4967C22.7303 13.5957 20.7876 13.4447 19.3709 13.6738C19.3709 12.8405 19.2459 11.2988 19.2459 10.4655C20.3293 10.4134 21.4178 10.3613 22.5324 10.2884C22.5063 10.2363 22.5063 10.1842 22.5063 10.1322C22.3032 9.12175 22.5324 10.0592 22.2251 8.81966L21.8501 7.00195C21.0376 6.97591 19.4959 7.04883 19.1938 7.10091C19.1938 6.26758 19.1678 4.67383 19.1678 4.52279L19.8241 4.44466C20.9126 4.3457 21.5688 4.39779 22.6053 4.39779C22.7095 3.46029 23.1626 1.33529 23.0116 1.48633C22.9074 1.48633 21.1418 1.33529 20.2043 1.28841C18.6366 1.13216 15.7824 1.23633 14.2407 1.0332C14.4386 3.93945 14.6157 6.87175 14.6678 9.80404C14.6938 11.6999 14.772 13.5957 14.8449 15.4915C14.8449 16.2259 14.8709 16.9863 14.897 17.7415Z"
        fill="#0098EA" />
    <path
        d="M26.422 17.4655C26.5262 17.4395 26.6512 17.4395 26.7502 17.4395C27.2554 17.3665 29.0002 17.3405 29.3543 17.3405L29.5314 13.8509L29.5054 10.1322C29.9116 10.8926 30.3439 11.653 30.797 12.4082C33.1981 16.403 32.4897 14.8874 33.3491 17.2363C34.6877 17.2363 36.0314 17.2363 37.37 17.2624C37.396 16.6842 37.396 14.3822 37.396 13.8249C37.422 12.8665 37.422 4.87695 37.4429 3.96549C36.7137 3.91341 34.6668 3.81445 34.3856 3.78841V3.96549C34.4116 4.39779 34.3856 4.85091 34.3127 11.9551L33.9325 11.1947L30.5939 3.66341L30.5418 3.58529C30.2658 3.55924 27.6095 3.38216 26.5731 3.36133C26.396 5.50716 26.3491 7.86133 26.3491 10.1322C26.3491 12.9395 26.422 15.5957 26.422 17.4655Z"
        fill="#0098EA" />
    <path
        d="M39.6191 17.7415C39.6921 17.7415 39.7702 17.7415 39.8431 17.7207C40.6296 17.4134 40.0462 17.6165 41.765 17.2624C41.765 17.2624 44.6243 16.8353 45.3587 16.7832C46.5931 16.7051 48.3639 16.4811 49.5514 16.429C49.4785 15.7728 49.4264 15.1165 49.3275 14.4551C49.0983 13.0905 49.5775 13.5957 48.6191 13.4967C47.4525 13.5957 45.5098 13.4447 44.0931 13.6738C44.0931 12.8405 43.9681 11.2988 43.9681 10.4655C45.0514 10.4134 46.14 10.3613 47.2546 10.2884C47.2285 10.2363 47.2285 10.1842 47.2285 10.1322C47.0254 9.12175 47.2546 10.0592 46.9473 8.81966L46.5723 7.00195C45.7598 6.97591 44.2181 7.04883 43.916 7.10091C43.916 6.26758 43.89 4.67383 43.89 4.52279L44.5462 4.44466C45.6348 4.3457 46.291 4.39779 47.3275 4.39779C47.4316 3.46029 47.8848 1.33529 47.7337 1.48633C47.6296 1.48633 45.8639 1.33529 44.9264 1.28841C43.3587 1.13216 40.5046 1.23633 38.9629 1.0332C39.1608 3.93945 39.3379 6.87175 39.39 9.80404C39.416 11.6999 39.4941 13.5957 39.5671 15.4915C39.5671 16.2259 39.5931 16.9863 39.6191 17.7415Z"
        fill="#0098EA" />
    <path
        d="M60.0713 18.4033C60.0921 18.4033 60.0921 18.3773 60.1182 18.3773C60.9046 17.945 62.9775 17.5648 63.8109 17.2367C63.5817 16.3773 63.3057 15.721 61.613 9.98145C62.04 9.70541 62.4723 9.35124 62.8265 8.97103L63.988 6.0127C63.9359 4.24187 62.5192 1.43978 59.514 1.11166C58.6025 1.00749 57.665 0.882492 56.7588 0.934575L51.9515 1.53874L51.1182 1.68978C51.1442 2.34603 51.2223 7.35124 51.2223 8.3877C51.2223 11.07 51.1702 14.0544 51.0713 16.4033L51.1442 17.721C52.4359 17.4658 52.3577 17.3877 53.6963 17.3877C54.2796 17.3877 54.8369 17.4137 55.113 17.4658C55.1911 17.4919 55.264 17.4919 55.3161 17.5179C55.4932 15.9502 55.6182 14.3825 55.6702 12.8148C56.3525 12.6898 57.0348 12.5387 57.6911 12.3356C57.7171 12.3356 57.7171 12.3356 57.7171 12.3617C59.514 16.9606 58.5036 13.7992 60.0713 18.4033ZM55.4671 9.67937C55.29 7.27833 55.0869 5.48145 55.04 5.10124C55.6963 5.12728 56.7327 5.15333 57.5661 5.15333C58.0192 5.15333 58.5765 5.12729 58.8317 5.08041C59.1859 5.55958 59.5609 6.03874 59.8942 6.51791C59.613 7.12728 59.2848 7.70541 58.8786 8.23666C57.7432 8.72103 56.5557 9.14812 55.4671 9.67937Z"
        fill="#0098EA" />
    <path
        d="M69.0676 17.3669C69.2708 16.0231 69.802 13.8773 70.078 13.596C70.6614 13.4971 73.4687 13.1429 73.6926 13.0908L74.0728 14.0023C75.2603 16.4294 74.276 14.6117 75.7395 17.0856C77.0051 16.8356 77.1822 16.6846 78.4218 16.3304C78.4739 16.3044 78.4947 16.3044 78.5208 16.3044C78.4739 16.1012 78.3958 15.8721 77.8385 14.3304C77.3333 12.7887 76.8801 11.6533 75.9166 9.35124C75.0572 7.40332 72.9583 2.92936 72.5833 1.84082C70.3801 2.04395 69.953 2.06999 69.5728 2.14811L68.4843 2.29915C68.1301 3.66374 67.0208 8.26269 66.8697 9.20019C66.6666 10.2367 65.8593 15.2679 65.5051 17.1637H65.9062C66.9687 17.1898 68.0051 17.2627 69.0676 17.3669ZM70.5364 11.195L71.3697 6.36686C71.6718 7.96061 72.4062 9.85645 72.7864 10.8408L70.9374 11.1221L70.5364 11.195Z"
        fill="#0098EA" />
    <path
        d="M83.6807 17.4655C83.8577 17.4134 84.0348 17.3874 84.1859 17.3405C85.2432 17.1634 86.0296 17.0853 86.889 16.8613C86.9671 15.8978 87.1442 13.4967 87.2432 12.9395C87.2432 12.6374 87.2171 12.3353 87.2171 12.028C87.04 6.7207 87.04 6.2155 87.014 5.68424V5.10091C87.9515 5.12695 89.9723 5.25716 89.9723 5.028C89.9202 4.4707 89.8473 3.91341 89.7692 3.36133C89.7223 3.00716 89.6963 2.653 89.6442 2.27279C89.4932 2.29883 89.3161 2.29883 89.139 2.32487C88.0765 2.37175 87.04 2.42383 85.9775 2.42383C85.1442 2.42383 82.8421 2.19466 82.4411 2.19466C82.29 2.19466 82.1338 2.19466 81.9827 2.16862C81.4307 2.16862 80.5713 2.0957 80.3682 2.01758C80.264 3.10612 80.139 4.19466 80.04 5.278C81.0765 5.278 82.113 5.23112 83.1702 5.17904C83.1963 7.73112 83.3473 10.2884 83.3994 12.8665C83.6025 14.1009 83.6546 15.3926 83.6807 16.6582V17.4655Z"
        fill="#0098EA" />
    <path
        d="M92.1475 17.7415C92.2204 17.7415 92.2985 17.7415 92.3714 17.7207C93.1579 17.4134 92.5745 17.6165 94.2933 17.2624C94.2933 17.2624 97.1527 16.8353 97.887 16.7832C99.1214 16.7051 100.892 16.4811 102.08 16.429C102.007 15.7728 101.955 15.1165 101.856 14.4551C101.627 13.0905 102.106 13.5957 101.147 13.4967C99.9808 13.5957 98.0381 13.4447 96.6214 13.6738C96.6214 12.8405 96.4964 11.2988 96.4964 10.4655C97.5798 10.4134 98.6683 10.3613 99.7829 10.2884C99.7568 10.2363 99.7568 10.1842 99.7568 10.1322C99.5537 9.12175 99.7829 10.0592 99.4756 8.81966L99.1006 7.00195C98.2881 6.97591 96.7464 7.04883 96.4443 7.10091C96.4443 6.26758 96.4183 4.67383 96.4183 4.52279L97.0745 4.44466C98.1631 4.3457 98.8193 4.39779 99.8558 4.39779C99.96 3.46029 100.413 1.33529 100.262 1.48633C100.158 1.48633 98.3923 1.33529 97.4548 1.28841C95.887 1.13216 93.0329 1.23633 91.4912 1.0332C91.6891 3.93945 91.8662 6.87175 91.9183 9.80404C91.9443 11.6999 92.0225 13.5957 92.0954 15.4915C92.0954 16.2259 92.1214 16.9863 92.1475 17.7415Z"
        fill="#0098EA" />
    <path
        d="M115.657 17.4655C116.516 17.4655 118.261 17.2884 118.261 17.2884C119.673 14.8874 119.042 16.252 119.6 14.8613L120.912 17.2884H120.938C121.798 17.3145 122.657 17.4655 123.542 17.4655C124.402 14.5072 127.485 5.73633 127.99 3.93945L127.084 3.91341C126.449 3.86654 125.819 3.8405 125.188 3.76237L124.329 3.68945C123.975 4.57487 123.621 6.26758 123.365 7.50716C122.912 9.47591 122.584 10.3353 121.923 12.2311L121.24 10.7415L123.188 5.05404C122.761 5.00195 122.329 4.92904 121.902 4.85091L120.157 4.54883L119.6 6.16341V6.21549C119.6 6.18945 119.574 6.18945 119.574 6.16341C119.423 5.71029 119.095 4.72591 119.016 4.54883C118.891 4.57487 118.792 4.5957 118.662 4.5957C118.209 4.69987 116.412 5.00195 115.985 5.05404C116.214 5.86133 116.49 6.66862 116.74 7.48112C117.501 9.62695 117.147 8.7207 117.933 10.7415C117.73 11.2467 117.475 11.752 117.251 12.2311L116.49 10.0332C115.704 7.48112 115.527 5.55924 114.871 3.68945L114.011 3.76237C113.277 3.8405 111.584 3.93945 111.183 3.93945C111.662 5.63216 112.371 7.27799 112.949 8.94466C113.964 11.752 114.824 14.6113 115.657 17.4655Z"
        fill="#0098EA" />
    <path
        d="M133.072 17.3669C133.275 16.0231 133.807 13.8773 134.083 13.596C134.666 13.4971 137.473 13.1429 137.697 13.0908L138.077 14.0023C139.265 16.4294 138.281 14.6117 139.744 17.0856C141.01 16.8356 141.187 16.6846 142.426 16.3304C142.479 16.3044 142.499 16.3044 142.525 16.3044C142.479 16.1012 142.4 15.8721 141.843 14.3304C141.338 12.7887 140.885 11.6533 139.921 9.35124C139.062 7.40332 136.963 2.92936 136.588 1.84082C134.385 2.04395 133.958 2.06999 133.577 2.14811L132.489 2.29915C132.135 3.66374 131.025 8.26269 130.874 9.20019C130.671 10.2367 129.864 15.2679 129.51 17.1637H129.911C130.973 17.1898 132.01 17.2627 133.072 17.3669ZM134.541 11.195L135.374 6.36686C135.676 7.96061 136.411 9.85645 136.791 10.8408L134.942 11.1221L134.541 11.195Z"
        fill="#0098EA" />
    <path
        d="M153.399 18.0228C153.571 14.028 153.373 17.9447 153.623 14.1009L153.701 13.5957C153.675 13.5957 153.623 13.5957 153.597 13.6217L153.222 13.6999L153.045 13.7467H152.915C152.639 13.7728 152.363 13.7988 152.081 13.7988C151.477 13.7988 149.248 13.6478 148.493 13.6478C148.519 12.8145 148.519 10.4395 148.519 10.0853C148.519 9.22591 148.493 8.36654 148.415 7.52799C148.441 6.54362 148.566 4.04362 148.566 3.73633C148.618 3.43424 148.618 2.95508 148.644 2.29883C147.837 2.29883 144.623 2.37175 144.045 2.37175C144.045 11.6009 144.222 4.04362 144.222 13.5957C144.196 14.5332 144.144 16.5801 144.045 17.5176C144.675 17.4915 145.279 17.4655 145.889 17.4655C148.644 17.4655 150.311 17.8197 152.738 17.9967C152.967 18.0228 153.196 18.0228 153.399 18.0228Z"
        fill="#0098EA" />
    <path
        d="M164.572 18.0228C164.744 14.028 164.546 17.9447 164.796 14.1009L164.874 13.5957C164.848 13.5957 164.796 13.5957 164.77 13.6217L164.395 13.6999L164.218 13.7467H164.088C163.812 13.7728 163.535 13.7988 163.254 13.7988C162.65 13.7988 160.421 13.6478 159.666 13.6478C159.692 12.8145 159.692 10.4395 159.692 10.0853C159.692 9.22591 159.666 8.36654 159.588 7.52799C159.614 6.54362 159.739 4.04362 159.739 3.73633C159.791 3.43424 159.791 2.95508 159.817 2.29883C159.009 2.29883 155.796 2.37175 155.218 2.37175C155.218 11.6009 155.395 4.04362 155.395 13.5957C155.369 14.5332 155.317 16.5801 155.218 17.5176C155.848 17.4915 156.452 17.4655 157.062 17.4655C159.817 17.4655 161.483 17.8197 163.91 17.9967C164.14 18.0228 164.369 18.0228 164.572 18.0228Z"
        fill="#0098EA" />
    <path
        d="M167.047 17.7415C167.12 17.7415 167.198 17.7415 167.271 17.7207C168.058 17.4134 167.474 17.6165 169.193 17.2624C169.193 17.2624 172.052 16.8353 172.787 16.7832C174.021 16.7051 175.792 16.4811 176.979 16.429C176.906 15.7728 176.854 15.1165 176.755 14.4551C176.526 13.0905 177.005 13.5957 176.047 13.4967C174.88 13.5957 172.938 13.4447 171.521 13.6738C171.521 12.8405 171.396 11.2988 171.396 10.4655C172.479 10.4134 173.568 10.3613 174.683 10.2884C174.656 10.2363 174.656 10.1842 174.656 10.1322C174.453 9.12175 174.683 10.0592 174.375 8.81966L174 7.00195C173.188 6.97591 171.646 7.04883 171.344 7.10091C171.344 6.26758 171.318 4.67383 171.318 4.52279L171.974 4.44466C173.063 4.3457 173.719 4.39779 174.755 4.39779C174.86 3.46029 175.313 1.33529 175.162 1.48633C175.058 1.48633 173.292 1.33529 172.354 1.28841C170.787 1.13216 167.933 1.23633 166.391 1.0332C166.589 3.93945 166.766 6.87175 166.818 9.80404C166.844 11.6999 166.922 13.5957 166.995 15.4915C166.995 16.2259 167.021 16.9863 167.047 17.7415Z"
        fill="#0098EA" />
    <path
        d="M182.14 17.4655C182.317 17.4134 182.494 17.3874 182.645 17.3405C183.702 17.1634 184.489 17.0853 185.348 16.8613C185.426 15.8978 185.603 13.4967 185.702 12.9395C185.702 12.6374 185.676 12.3353 185.676 12.028C185.499 6.7207 185.499 6.2155 185.473 5.68424V5.10091C186.41 5.12695 188.431 5.25716 188.431 5.028C188.379 4.4707 188.306 3.91341 188.228 3.36133C188.181 3.00716 188.155 2.653 188.103 2.27279C187.952 2.29883 187.775 2.29883 187.598 2.32487C186.535 2.37175 185.499 2.42383 184.437 2.42383C183.603 2.42383 181.301 2.19466 180.9 2.19466C180.749 2.19466 180.593 2.19466 180.442 2.16862C179.89 2.16862 179.03 2.0957 178.827 2.01758C178.723 3.10612 178.598 4.19466 178.499 5.278C179.535 5.278 180.572 5.23112 181.629 5.17904C181.655 7.73112 181.806 10.2884 181.858 12.8665C182.062 14.1009 182.114 15.3926 182.14 16.6582V17.4655Z"
        fill="#0098EA" />
</svg>