<svg width="500" height="500" viewBox="0 0 500 500" fill="none" xmlns="http://www.w3.org/2000/svg">
    <mask id="mask0_92_52" style="mask-type:luminance" maskUnits="userSpaceOnUse" x="31" y="31"
        width="439" height="439">
        <path d="M31.0625 31.0625H469.063V469.063H31.0625V31.0625Z" fill="white" />
    </mask>
    <g mask="url(#mask0_92_52)">
        <path
            d="M250 31.0625C246.417 31.0625 242.833 31.1458 239.255 31.3229C235.677 31.5 232.104 31.7656 228.536 32.1146C224.974 32.4635 221.417 32.9063 217.875 33.4323C214.328 33.9531 210.797 34.5677 207.286 35.2656C203.771 35.9635 200.276 36.75 196.802 37.6198C193.323 38.4896 189.87 39.4479 186.443 40.4896C183.016 41.526 179.615 42.651 176.24 43.8594C172.865 45.0677 169.526 46.3542 166.214 47.724C162.906 49.099 159.63 50.5469 156.391 52.0781C153.151 53.6146 149.953 55.224 146.792 56.9115C143.63 58.599 140.516 60.3646 137.443 62.2083C134.37 64.0521 131.344 65.9688 128.365 67.9583C125.385 69.9479 122.453 72.0104 119.578 74.1458C116.698 76.2813 113.875 78.4844 111.104 80.7552C108.333 83.0313 105.625 85.3698 102.969 87.776C100.313 90.1823 97.7188 92.651 95.1875 95.1875C92.651 97.7188 90.1823 100.313 87.776 102.969C85.3698 105.625 83.0313 108.333 80.7552 111.104C78.4844 113.875 76.2813 116.698 74.1458 119.578C72.0104 122.453 69.9479 125.385 67.9583 128.365C65.9688 131.344 64.0521 134.37 62.2083 137.443C60.3646 140.516 58.599 143.63 56.9115 146.792C55.224 149.953 53.6146 153.151 52.0781 156.391C50.5469 159.63 49.099 162.901 47.724 166.214C46.3542 169.526 45.0677 172.865 43.8594 176.24C42.651 179.615 41.526 183.016 40.4896 186.443C39.4479 189.87 38.4896 193.323 37.6198 196.802C36.75 200.276 35.9635 203.771 35.2656 207.286C34.5677 210.797 33.9531 214.328 33.4323 217.875C32.9063 221.417 32.4635 224.974 32.1146 228.536C31.7656 232.104 31.5 235.677 31.3229 239.255C31.1458 242.833 31.0625 246.417 31.0625 250C31.0625 253.583 31.1458 257.161 31.3229 260.74C31.5 264.318 31.7656 267.891 32.1146 271.458C32.4635 275.021 32.9063 278.578 33.4323 282.125C33.9531 285.667 34.5677 289.198 35.2656 292.708C35.9635 296.224 36.75 299.719 37.6198 303.193C38.4896 306.672 39.4479 310.125 40.4896 313.552C41.526 316.979 42.651 320.38 43.8594 323.755C45.0677 327.13 46.3542 330.469 47.724 333.781C49.099 337.094 50.5469 340.365 52.0781 343.604C53.6146 346.844 55.224 350.042 56.9115 353.203C58.599 356.365 60.3646 359.479 62.2083 362.552C64.0521 365.625 65.9688 368.651 67.9583 371.63C69.9479 374.615 72.0104 377.542 74.1458 380.417C76.2813 383.297 78.4844 386.12 80.7552 388.891C83.0313 391.661 85.3698 394.37 87.776 397.026C90.1823 399.682 92.651 402.276 95.1875 404.807C97.7188 407.344 100.313 409.813 102.969 412.219C105.625 414.625 108.333 416.964 111.104 419.24C113.875 421.51 116.698 423.714 119.578 425.849C122.453 427.984 125.385 430.047 128.365 432.036C131.344 434.026 134.37 435.943 137.443 437.786C140.516 439.63 143.63 441.396 146.792 443.083C149.953 444.771 153.151 446.385 156.391 447.917C159.63 449.448 162.906 450.896 166.214 452.271C169.526 453.641 172.865 454.932 176.24 456.135C179.615 457.344 183.016 458.469 186.443 459.505C189.87 460.547 193.323 461.505 196.802 462.375C200.276 463.245 203.771 464.031 207.286 464.729C210.797 465.427 214.328 466.042 217.875 466.568C221.417 467.094 224.974 467.531 228.536 467.88C232.104 468.234 235.677 468.495 239.255 468.672C242.833 468.849 246.417 468.938 250 468.938C253.583 468.938 257.161 468.849 260.74 468.672C264.318 468.495 267.891 468.234 271.458 467.88C275.021 467.531 278.578 467.094 282.125 466.568C285.667 466.042 289.198 465.427 292.708 464.729C296.224 464.031 299.719 463.245 303.193 462.375C306.672 461.505 310.125 460.547 313.552 459.505C316.979 458.469 320.38 457.344 323.755 456.135C327.13 454.932 330.469 453.641 333.781 452.271C337.094 450.896 340.365 449.448 343.604 447.917C346.844 446.385 350.042 444.771 353.203 443.083C356.365 441.396 359.479 439.63 362.552 437.786C365.625 435.943 368.651 434.026 371.63 432.036C374.615 430.047 377.542 427.984 380.417 425.849C383.297 423.714 386.12 421.51 388.891 419.24C391.661 416.964 394.37 414.625 397.026 412.219C399.682 409.813 402.276 407.344 404.807 404.807C407.344 402.276 409.813 399.682 412.219 397.026C414.625 394.37 416.964 391.661 419.24 388.891C421.51 386.12 423.714 383.297 425.849 380.417C427.984 377.542 430.047 374.615 432.036 371.63C434.026 368.651 435.943 365.625 437.786 362.552C439.63 359.479 441.396 356.365 443.083 353.203C444.771 350.042 446.385 346.844 447.917 343.604C449.448 340.365 450.896 337.094 452.271 333.781C453.641 330.469 454.932 327.13 456.135 323.755C457.344 320.38 458.469 316.979 459.51 313.552C460.547 310.125 461.505 306.672 462.375 303.193C463.245 299.719 464.031 296.224 464.729 292.708C465.427 289.198 466.042 285.667 466.568 282.125C467.094 278.578 467.531 275.021 467.88 271.458C468.234 267.891 468.495 264.318 468.672 260.74C468.849 257.161 468.938 253.583 468.938 250C468.932 246.417 468.839 242.839 468.661 239.26C468.479 235.682 468.214 232.109 467.859 228.547C467.505 224.979 467.063 221.427 466.531 217.885C466.005 214.344 465.391 210.818 464.688 207.302C463.984 203.792 463.198 200.297 462.323 196.823C461.453 193.349 460.495 189.901 459.453 186.474C458.411 183.047 457.281 179.646 456.073 176.276C454.865 172.901 453.573 169.563 452.203 166.255C450.828 162.943 449.375 159.672 447.844 156.432C446.313 153.198 444.698 150 443.01 146.844C441.318 143.682 439.552 140.568 437.708 137.495C435.87 134.427 433.953 131.401 431.958 128.422C429.969 125.443 427.906 122.516 425.771 119.641C423.635 116.766 421.432 113.943 419.161 111.172C416.891 108.406 414.547 105.693 412.146 103.042C409.74 100.385 407.271 97.7917 404.734 95.2604C402.203 92.7292 399.609 90.2552 396.958 87.8542C394.302 85.4479 391.589 83.1042 388.823 80.8333C386.052 78.5625 383.229 76.3594 380.354 74.224C377.479 72.0885 374.552 70.026 371.573 68.0365C368.594 66.0469 365.573 64.1302 362.5 62.2865C359.427 60.4427 356.313 58.6771 353.156 56.9844C349.995 55.2969 346.797 53.6875 343.563 52.151C340.323 50.6198 337.052 49.1667 333.745 47.7917C330.432 46.4219 327.094 45.1302 323.724 43.9219C320.349 42.7135 316.953 41.5885 313.526 40.5417C310.099 39.5 306.646 38.5469 303.172 37.6719C299.698 36.7969 296.203 36.0104 292.693 35.3073C289.182 34.6094 285.651 33.9896 282.109 33.4635C278.568 32.9323 275.016 32.4896 271.448 32.1354C267.885 31.7813 264.313 31.5156 260.734 31.3333C257.161 31.1563 253.578 31.0625 250 31.0625ZM250 435.25C246.964 435.25 243.938 435.177 240.906 435.031C237.88 434.88 234.859 434.656 231.839 434.359C228.823 434.063 225.813 433.693 222.818 433.245C219.818 432.802 216.828 432.286 213.854 431.693C210.88 431.099 207.927 430.438 204.984 429.703C202.042 428.964 199.12 428.156 196.219 427.276C193.318 426.396 190.443 425.443 187.589 424.422C184.734 423.401 181.906 422.313 179.104 421.151C176.302 419.99 173.531 418.76 170.792 417.464C168.052 416.172 165.344 414.807 162.667 413.38C159.995 411.948 157.359 410.453 154.755 408.896C152.156 407.339 149.599 405.714 147.078 404.031C144.557 402.349 142.078 400.604 139.641 398.797C137.208 396.99 134.818 395.125 132.474 393.203C130.13 391.276 127.833 389.297 125.589 387.26C123.344 385.224 121.146 383.135 119.005 380.995C116.859 378.849 114.771 376.656 112.734 374.406C110.698 372.161 108.719 369.865 106.792 367.521C104.87 365.177 103.005 362.786 101.198 360.354C99.3958 357.917 97.6458 355.443 95.9635 352.922C94.2813 350.401 92.6563 347.839 91.099 345.24C89.5417 342.635 88.0469 340 86.6198 337.328C85.1875 334.651 83.8281 331.943 82.5313 329.203C81.2344 326.464 80.0052 323.693 78.8438 320.891C77.6823 318.089 76.5938 315.26 75.5729 312.406C74.5521 309.552 73.599 306.677 72.7188 303.776C71.8385 300.875 71.0313 297.953 70.2969 295.01C69.5573 292.068 68.8958 289.115 68.3021 286.141C67.7135 283.167 67.1927 280.177 66.75 277.182C66.3021 274.182 65.9323 271.172 65.6354 268.156C65.3385 265.141 65.1146 262.115 64.9635 259.089C64.8177 256.057 64.7448 253.031 64.7448 250C64.7448 246.964 64.8177 243.938 64.9635 240.906C65.1146 237.88 65.3385 234.859 65.6354 231.839C65.9323 228.823 66.3021 225.813 66.75 222.818C67.1927 219.818 67.7135 216.828 68.3021 213.854C68.8958 210.88 69.5573 207.927 70.2969 204.984C71.0313 202.042 71.8385 199.12 72.7188 196.219C73.599 193.318 74.5521 190.443 75.5729 187.589C76.5938 184.734 77.6823 181.906 78.8438 179.104C80.0052 176.302 81.2344 173.531 82.5313 170.792C83.8281 168.052 85.1875 165.344 86.6198 162.667C88.0469 159.995 89.5417 157.359 91.099 154.755C92.6563 152.156 94.2813 149.599 95.9635 147.078C97.6458 144.557 99.3958 142.078 101.198 139.641C103.005 137.208 104.87 134.818 106.792 132.474C108.719 130.13 110.698 127.833 112.734 125.589C114.771 123.344 116.859 121.146 119.005 119.005C121.146 116.859 123.344 114.771 125.589 112.734C127.833 110.698 130.13 108.719 132.474 106.792C134.818 104.87 137.208 103.005 139.641 101.198C142.078 99.3958 144.557 97.6458 147.078 95.9635C149.599 94.2813 152.156 92.6563 154.755 91.099C157.359 89.5417 159.995 88.0469 162.667 86.6198C165.344 85.1875 168.052 83.8281 170.792 82.5313C173.531 81.2344 176.302 80.0052 179.104 78.8438C181.906 77.6823 184.734 76.5938 187.589 75.5729C190.443 74.5521 193.318 73.599 196.219 72.7188C199.12 71.8385 202.042 71.0313 204.984 70.2969C207.927 69.5573 210.88 68.8958 213.854 68.3021C216.828 67.7135 219.818 67.1927 222.818 66.75C225.813 66.3021 228.823 65.9323 231.839 65.6354C234.859 65.3385 237.88 65.1146 240.906 64.9635C243.938 64.8177 246.964 64.7448 250 64.7448C253.031 64.7448 256.057 64.8177 259.089 64.9635C262.115 65.1146 265.141 65.3385 268.156 65.6354C271.172 65.9323 274.182 66.3021 277.182 66.75C280.177 67.1927 283.167 67.7135 286.141 68.3021C289.115 68.8958 292.068 69.5573 295.01 70.2969C297.953 71.0313 300.875 71.8385 303.776 72.7188C306.677 73.599 309.552 74.5521 312.406 75.5729C315.26 76.5938 318.089 77.6823 320.891 78.8438C323.693 80.0052 326.464 81.2344 329.203 82.5313C331.943 83.8281 334.651 85.1875 337.328 86.6198C340 88.0469 342.635 89.5417 345.24 91.099C347.839 92.6563 350.401 94.2813 352.922 95.9635C355.443 97.6458 357.917 99.3958 360.354 101.198C362.792 103.005 365.177 104.87 367.521 106.792C369.865 108.719 372.161 110.698 374.406 112.734C376.656 114.771 378.849 116.859 380.995 119.005C383.135 121.146 385.224 123.344 387.26 125.589C389.297 127.833 391.276 130.13 393.203 132.474C395.125 134.818 396.99 137.208 398.797 139.641C400.604 142.078 402.349 144.557 404.031 147.078C405.714 149.599 407.339 152.156 408.896 154.755C410.453 157.359 411.948 159.995 413.38 162.667C414.807 165.344 416.172 168.052 417.464 170.792C418.76 173.531 419.99 176.302 421.151 179.104C422.313 181.906 423.401 184.734 424.422 187.589C425.443 190.443 426.396 193.318 427.276 196.219C428.156 199.12 428.964 202.042 429.703 204.984C430.438 207.927 431.099 210.88 431.693 213.854C432.286 216.828 432.802 219.818 433.245 222.818C433.693 225.813 434.063 228.823 434.359 231.839C434.656 234.859 434.88 237.88 435.031 240.906C435.177 243.938 435.25 246.964 435.25 250C435.25 253.026 435.172 256.057 435.021 259.083C434.865 262.109 434.641 265.135 434.339 268.151C434.042 271.167 433.667 274.172 433.219 277.172C432.771 280.167 432.25 283.151 431.656 286.125C431.063 289.094 430.396 292.052 429.656 294.99C428.917 297.932 428.109 300.849 427.224 303.75C426.344 306.651 425.391 309.526 424.37 312.38C423.344 315.234 422.255 318.057 421.094 320.859C419.932 323.656 418.703 326.427 417.406 329.167C416.109 331.906 414.745 334.609 413.313 337.281C411.885 339.953 410.391 342.589 408.828 345.188C407.271 347.792 405.651 350.349 403.964 352.87C402.281 355.385 400.536 357.865 398.729 360.297C396.922 362.734 395.057 365.12 393.135 367.464C391.214 369.807 389.234 372.099 387.198 374.344C385.161 376.594 383.073 378.786 380.927 380.927C378.786 383.073 376.594 385.161 374.344 387.198C372.099 389.234 369.807 391.214 367.464 393.135C365.12 395.057 362.734 396.922 360.297 398.729C357.865 400.536 355.385 402.281 352.87 403.964C350.349 405.651 347.792 407.271 345.193 408.828C342.589 410.391 339.953 411.885 337.281 413.313C334.609 414.745 331.906 416.109 329.167 417.406C326.427 418.703 323.656 419.932 320.859 421.094C318.057 422.255 315.234 423.344 312.38 424.37C309.526 425.391 306.651 426.344 303.75 427.224C300.849 428.109 297.932 428.917 294.99 429.656C292.052 430.396 289.094 431.063 286.125 431.656C283.151 432.25 280.167 432.771 277.172 433.219C274.172 433.667 271.167 434.042 268.151 434.339C265.135 434.641 262.109 434.865 259.083 435.021C256.057 435.172 253.026 435.25 250 435.25Z"
            fill="#0098EA" />
    </g>
    <path
        d="M262.073 133.172C260.865 132.948 259.651 132.761 258.427 132.609C257.208 132.453 255.985 132.333 254.761 132.245C253.537 132.162 252.307 132.104 251.078 132.089C249.849 132.068 248.62 132.083 247.391 132.13C246.162 132.177 244.938 132.255 243.714 132.37C242.49 132.484 241.266 132.636 240.052 132.818C238.839 133 237.625 133.214 236.422 133.458C235.219 133.708 234.021 133.99 232.833 134.302C231.646 134.615 230.464 134.958 229.297 135.339C228.125 135.714 226.969 136.125 225.818 136.568C224.672 137.011 223.537 137.479 222.417 137.984C221.292 138.49 220.188 139.021 219.094 139.583C218 140.151 216.927 140.74 215.865 141.365C214.807 141.99 213.766 142.641 212.74 143.318C211.714 144 210.714 144.708 209.724 145.443C208.74 146.177 207.776 146.938 206.833 147.724C205.886 148.516 204.969 149.328 204.068 150.167C203.167 151 202.292 151.865 201.438 152.75C200.589 153.636 199.761 154.547 198.958 155.479C198.156 156.406 197.38 157.359 196.63 158.333C195.88 159.307 195.156 160.302 194.458 161.318C193.766 162.328 193.099 163.359 192.458 164.412C191.818 165.464 191.208 166.526 190.625 167.609C190.047 168.693 189.495 169.792 188.974 170.906C188.453 172.021 187.964 173.146 187.505 174.287C187.047 175.427 186.62 176.583 186.224 177.745C185.828 178.906 185.464 180.083 185.13 181.266C184.797 182.448 184.5 183.641 184.235 184.844C183.969 186.042 183.735 187.25 183.531 188.464C183.333 189.672 183.167 190.891 183.031 192.115C182.901 193.339 182.797 194.563 182.729 195.787C182.667 197.016 182.63 198.245 182.63 199.474H216.313C216.313 198.24 216.38 197.005 216.516 195.781C216.651 194.552 216.849 193.333 217.12 192.13C217.386 190.922 217.719 189.734 218.12 188.568C218.521 187.401 218.979 186.255 219.505 185.136C220.031 184.021 220.615 182.932 221.255 181.88C221.901 180.828 222.604 179.813 223.36 178.833C224.115 177.859 224.922 176.927 225.776 176.037C226.636 175.151 227.542 174.313 228.49 173.521C229.443 172.734 230.432 172 231.464 171.318C232.495 170.641 233.563 170.021 234.662 169.458C235.761 168.896 236.886 168.396 238.042 167.953C239.198 167.516 240.37 167.146 241.568 166.833C242.766 166.526 243.974 166.281 245.193 166.104C246.417 165.932 247.646 165.823 248.88 165.781C250.115 165.74 251.349 165.766 252.578 165.859C253.807 165.958 255.031 166.12 256.245 166.349C257.86 166.646 259.443 167.063 260.995 167.599C262.542 168.13 264.047 168.771 265.505 169.526C266.964 170.276 268.36 171.13 269.693 172.089C271.026 173.042 272.281 174.094 273.464 175.229C274.641 176.37 275.735 177.589 276.735 178.891C277.735 180.188 278.641 181.552 279.443 182.984C280.245 184.417 280.938 185.896 281.521 187.432C282.11 188.964 282.578 190.531 282.938 192.13C283.292 193.729 283.531 195.349 283.651 196.984C283.771 198.625 283.771 200.261 283.656 201.896C283.537 203.531 283.297 205.151 282.943 206.75C282.589 208.354 282.12 209.922 281.537 211.453C280.948 212.984 280.255 214.469 279.458 215.901C278.656 217.333 277.755 218.698 276.755 220C275.755 221.297 274.667 222.521 273.485 223.662C272.307 224.802 271.052 225.849 269.719 226.807C266.974 228.677 264.349 230.698 261.844 232.88C259.339 235.063 256.969 237.38 254.745 239.844C252.516 242.307 250.443 244.896 248.521 247.604C246.604 250.318 244.849 253.13 243.271 256.052C241.688 258.969 240.281 261.974 239.057 265.063C237.833 268.146 236.797 271.297 235.948 274.511C235.099 277.719 234.443 280.969 233.979 284.261C233.521 287.547 233.255 290.854 233.188 294.172V300.521H266.875V294.172C266.948 292.182 267.141 290.203 267.453 288.234C267.761 286.266 268.188 284.323 268.729 282.406C269.271 280.49 269.922 278.609 270.688 276.771C271.453 274.932 272.323 273.141 273.302 271.406C274.281 269.672 275.36 268 276.537 266.391C277.714 264.781 278.979 263.25 280.339 261.792C281.698 260.339 283.141 258.964 284.662 257.677C286.182 256.396 287.776 255.203 289.443 254.109C292.104 252.188 294.62 250.083 296.979 247.792C299.339 245.505 301.516 243.057 303.516 240.448C305.516 237.839 307.318 235.099 308.917 232.229C310.516 229.359 311.896 226.386 313.057 223.313C314.224 220.24 315.156 217.099 315.865 213.886C316.568 210.677 317.031 207.432 317.266 204.156C317.495 200.875 317.485 197.599 317.235 194.323C316.985 191.047 316.495 187.802 315.771 184.599C315.047 181.391 314.094 178.255 312.906 175.193C311.724 172.125 310.323 169.162 308.708 166.302C307.089 163.438 305.276 160.714 303.255 158.115C301.24 155.521 299.047 153.089 296.672 150.813C294.302 148.537 291.776 146.448 289.099 144.547C286.417 142.641 283.615 140.943 280.688 139.448C277.761 137.953 274.74 136.682 271.625 135.63C268.516 134.578 265.339 133.755 262.104 133.172H262.073Z"
        fill="#0098EA" />
    <path
        d="M266.839 351.047C266.839 352.151 266.729 353.245 266.516 354.333C266.302 355.417 265.979 356.469 265.557 357.49C265.135 358.51 264.615 359.484 264 360.401C263.385 361.323 262.688 362.172 261.906 362.953C261.125 363.734 260.276 364.432 259.354 365.047C258.432 365.661 257.464 366.182 256.443 366.604C255.422 367.026 254.37 367.349 253.281 367.563C252.198 367.781 251.104 367.885 250 367.885C248.891 367.885 247.797 367.781 246.714 367.563C245.625 367.349 244.573 367.026 243.552 366.604C242.531 366.182 241.562 365.661 240.641 365.047C239.724 364.432 238.87 363.734 238.089 362.953C237.307 362.172 236.609 361.323 235.995 360.401C235.38 359.484 234.859 358.51 234.438 357.49C234.016 356.469 233.698 355.417 233.479 354.333C233.266 353.245 233.156 352.151 233.156 351.047C233.156 349.938 233.266 348.844 233.479 347.76C233.698 346.677 234.016 345.625 234.438 344.599C234.859 343.578 235.38 342.609 235.995 341.688C236.609 340.771 237.307 339.917 238.089 339.135C238.87 338.354 239.724 337.656 240.641 337.042C241.562 336.427 242.531 335.911 243.552 335.484C244.573 335.063 245.625 334.745 246.714 334.526C247.797 334.313 248.891 334.203 250 334.203C251.104 334.203 252.198 334.313 253.281 334.526C254.37 334.745 255.422 335.063 256.443 335.484C257.464 335.911 258.432 336.427 259.354 337.042C260.276 337.656 261.125 338.354 261.906 339.135C262.688 339.917 263.385 340.771 264 341.688C264.615 342.609 265.135 343.578 265.557 344.599C265.979 345.625 266.302 346.677 266.516 347.76C266.729 348.844 266.839 349.938 266.839 351.047Z"
        fill="#0098EA" />
</svg>