<svg width="64" height="64" viewBox="0 0 64 64" fill="none" xmlns="http://www.w3.org/2000/svg">
    <mask id="mask0_98_118" style="mask-type:luminance" maskUnits="userSpaceOnUse" x="7" y="7"
        width="50" height="50">
        <path d="M7.5957 7.5957H56.3358V56.4148H7.5957V7.5957Z" fill="white" />
    </mask>
    <g mask="url(#mask0_98_118)">
        <path
            d="M21.2103 28.7457H42.3778C44.2757 28.75 45.8053 30.2926 45.7967 32.1861C45.788 34.071 44.2627 35.5963 42.3778 35.605H21.2103C19.3167 35.5963 17.7871 34.058 17.7957 32.1602C17.8001 30.2753 19.3254 28.75 21.2103 28.7457ZM31.2849 7.60435C18.0819 7.96823 7.57414 18.788 7.59575 31.9954C7.56982 45.4497 18.4544 56.3781 31.909 56.404C45.3633 56.43 56.2914 45.5451 56.3174 32.0908C56.3174 32.0605 56.3174 32.0303 56.3174 31.9954C56.339 18.5454 45.4498 7.61731 31.9954 7.5957C31.7572 7.5957 31.5232 7.60002 31.2849 7.60435Z"
            fill="#EA4200" />
    </g>
</svg>