<svg width="64" height="64" viewBox="0 0 64 64" fill="none" xmlns="http://www.w3.org/2000/svg">
    <mask id="mask0_98_124" style="mask-type:luminance" maskUnits="userSpaceOnUse" x="6" y="6"
        width="52" height="52">
        <path d="M6.3999 6.40039H57.5999V57.5411H6.3999V6.40039Z" fill="white" />
    </mask>
    <g mask="url(#mask0_98_124)">
        <path fill-rule="evenodd" clip-rule="evenodd"
            d="M57.5731 31.9708C57.5731 24.9096 54.7108 18.5167 50.0839 13.8896C45.4568 9.26212 39.0639 6.40039 32.0027 6.40039C24.9416 6.40039 18.5487 9.26212 13.9216 13.8896C9.29472 18.5167 6.43237 24.9096 6.43237 31.9708C6.43237 39.0319 9.29472 45.4248 13.9216 50.0516C18.5487 54.6788 24.9416 57.5411 32.0027 57.5411C39.0639 57.5411 45.4568 54.6788 50.0839 50.0516C54.7108 45.4248 57.5731 39.0319 57.5731 31.9708Z"
            fill="#0098EA" />
    </g>
    <path fill-rule="evenodd" clip-rule="evenodd"
        d="M28.1137 48.9695H36.6053V36.5729H49.0019V27.3676H36.6053V14.9707H27.4004V27.3676H15.0032V36.5729H27.4004V48.9695H28.1137Z"
        fill="white" />
</svg>