<svg width="500" height="500" viewBox="0 0 500 500" fill="none" xmlns="http://www.w3.org/2000/svg">
    <mask id="mask0_90_18" style="mask-type:luminance" maskUnits="userSpaceOnUse" x="26" y="26"
        width="449" height="449">
        <path d="M26.375 26.375H474.667V474.667H26.375V26.375Z" fill="white" />
    </mask>
    <g mask="url(#mask0_90_18)">
        <path
            d="M473.609 249.99C473.609 253.651 473.521 257.307 473.339 260.964C473.161 264.62 472.891 268.266 472.531 271.911C472.172 275.552 471.729 279.182 471.188 282.802C470.651 286.422 470.026 290.026 469.313 293.62C468.599 297.208 467.797 300.776 466.906 304.328C466.021 307.875 465.042 311.401 463.979 314.906C462.917 318.406 461.771 321.88 460.536 325.328C459.307 328.771 457.99 332.188 456.589 335.568C455.188 338.948 453.703 342.292 452.141 345.599C450.573 348.911 448.932 352.177 447.203 355.406C445.479 358.63 443.677 361.818 441.797 364.953C439.911 368.094 437.958 371.182 435.922 374.229C433.891 377.271 431.781 380.26 429.604 383.203C427.422 386.141 425.172 389.026 422.849 391.854C420.531 394.682 418.141 397.453 415.682 400.167C413.224 402.875 410.703 405.526 408.115 408.115C405.526 410.703 402.875 413.224 400.167 415.682C397.453 418.141 394.682 420.531 391.854 422.849C389.026 425.172 386.141 427.422 383.203 429.604C380.26 431.781 377.271 433.891 374.229 435.922C371.182 437.958 368.094 439.911 364.953 441.797C361.818 443.677 358.63 445.479 355.406 447.203C352.177 448.932 348.911 450.573 345.599 452.141C342.292 453.703 338.948 455.188 335.568 456.589C332.188 457.99 328.771 459.307 325.328 460.536C321.88 461.771 318.406 462.917 314.906 463.979C311.401 465.042 307.875 466.021 304.328 466.906C300.776 467.797 297.208 468.599 293.62 469.313C290.026 470.026 286.422 470.651 282.802 471.188C279.182 471.724 275.552 472.172 271.911 472.531C268.266 472.891 264.62 473.161 260.964 473.339C257.307 473.521 253.651 473.609 249.99 473.609C246.333 473.609 242.672 473.521 239.021 473.339C235.365 473.161 231.714 472.891 228.073 472.531C224.432 472.172 220.802 471.729 217.182 471.188C213.557 470.651 209.953 470.026 206.365 469.313C202.776 468.599 199.208 467.797 195.656 466.906C192.104 466.021 188.578 465.042 185.078 463.979C181.578 462.917 178.104 461.771 174.656 460.536C171.214 459.307 167.797 457.99 164.417 456.589C161.036 455.188 157.693 453.703 154.38 452.141C151.073 450.573 147.807 448.932 144.578 447.203C141.349 445.479 138.167 443.677 135.031 441.797C131.891 439.911 128.797 437.958 125.755 435.922C122.714 433.891 119.724 431.781 116.781 429.604C113.844 427.422 110.958 425.172 108.13 422.849C105.302 420.531 102.531 418.141 99.8177 415.682C97.1094 413.224 94.4583 410.703 91.8698 408.115C89.2813 405.526 86.7604 402.875 84.3021 400.167C81.8438 397.453 79.4531 394.682 77.1302 391.854C74.8125 389.026 72.5573 386.141 70.3802 383.203C68.1979 380.26 66.0938 377.271 64.0573 374.229C62.026 371.182 60.0677 368.094 58.1875 364.953C56.3073 361.818 54.5052 358.63 52.776 355.406C51.0521 352.177 49.4063 348.911 47.8438 345.599C46.276 342.292 44.7969 338.948 43.3958 335.568C41.9948 332.188 40.6771 328.771 39.4427 325.328C38.2135 321.88 37.0625 318.406 36 314.906C34.9375 311.401 33.9635 307.875 33.0729 304.328C32.1875 300.776 31.3854 297.208 30.6719 293.62C29.9583 290.026 29.3281 286.422 28.7917 282.802C28.2552 279.182 27.8073 275.552 27.4479 271.911C27.0937 268.266 26.8229 264.62 26.6406 260.964C26.4635 257.307 26.375 253.651 26.375 249.99C26.375 246.333 26.4635 242.672 26.6406 239.021C26.8229 235.365 27.0937 231.714 27.4479 228.073C27.8073 224.432 28.2552 220.802 28.7917 217.182C29.3281 213.557 29.9583 209.953 30.6719 206.365C31.3854 202.776 32.1875 199.208 33.0729 195.656C33.9635 192.104 34.9375 188.578 36 185.078C37.0625 181.578 38.2135 178.104 39.4427 174.656C40.6771 171.214 41.9948 167.797 43.3958 164.417C44.7969 161.036 46.276 157.693 47.8438 154.38C49.4063 151.073 51.0521 147.807 52.776 144.578C54.5052 141.349 56.3073 138.167 58.1875 135.031C60.0677 131.891 62.026 128.797 64.0573 125.755C66.0938 122.714 68.1979 119.724 70.3802 116.781C72.5573 113.844 74.8125 110.958 77.1302 108.13C79.4531 105.302 81.8438 102.531 84.3021 99.8177C86.7604 97.1094 89.2813 94.4583 91.8698 91.8698C94.4583 89.2813 97.1094 86.7604 99.8177 84.3021C102.531 81.8438 105.302 79.4531 108.13 77.1302C110.958 74.8125 113.844 72.5573 116.781 70.3802C119.724 68.1979 122.714 66.0938 125.755 64.0573C128.797 62.026 131.891 60.0677 135.031 58.1875C138.167 56.3073 141.349 54.5052 144.578 52.776C147.807 51.0521 151.073 49.4063 154.38 47.8438C157.693 46.276 161.036 44.7969 164.417 43.3958C167.797 41.9948 171.214 40.6771 174.656 39.4427C178.104 38.2135 181.578 37.0625 185.078 36C188.578 34.9375 192.104 33.9635 195.656 33.0729C199.208 32.1875 202.776 31.3854 206.365 30.6719C209.953 29.9583 213.557 29.3281 217.182 28.7917C220.802 28.2552 224.432 27.8073 228.073 27.4479C231.714 27.0937 235.365 26.8229 239.021 26.6406C242.672 26.4635 246.333 26.375 249.99 26.375C253.651 26.375 257.307 26.4635 260.964 26.6406C264.62 26.8229 268.266 27.0937 271.911 27.4479C275.552 27.8073 279.182 28.2552 282.802 28.7917C286.422 29.3281 290.026 29.9583 293.62 30.6719C297.208 31.3854 300.776 32.1875 304.328 33.0729C307.875 33.9635 311.401 34.9375 314.906 36C318.406 37.0625 321.88 38.2135 325.328 39.4427C328.771 40.6771 332.188 41.9948 335.568 43.3958C338.948 44.7969 342.292 46.276 345.599 47.8438C348.911 49.4063 352.177 51.0521 355.406 52.776C358.63 54.5052 361.818 56.3073 364.953 58.1875C368.094 60.0677 371.182 62.026 374.229 64.0573C377.271 66.0938 380.26 68.1979 383.203 70.3802C386.141 72.5573 389.026 74.8125 391.854 77.1302C394.682 79.4531 397.453 81.8438 400.167 84.3021C402.875 86.7604 405.526 89.2813 408.115 91.8698C410.703 94.4583 413.224 97.1094 415.682 99.8177C418.141 102.531 420.531 105.302 422.849 108.13C425.172 110.958 427.422 113.844 429.604 116.781C431.781 119.724 433.891 122.714 435.922 125.755C437.958 128.797 439.911 131.891 441.797 135.031C443.677 138.167 445.479 141.349 447.203 144.578C448.932 147.807 450.573 151.073 452.141 154.38C453.703 157.693 455.188 161.036 456.589 164.417C457.99 167.797 459.307 171.214 460.536 174.656C461.771 178.104 462.917 181.578 463.979 185.078C465.042 188.578 466.021 192.104 466.906 195.656C467.797 199.208 468.599 202.776 469.313 206.365C470.026 209.953 470.651 213.557 471.188 217.182C471.729 220.802 472.172 224.432 472.531 228.073C472.891 231.714 473.161 235.365 473.339 239.021C473.521 242.672 473.609 246.333 473.609 249.99Z"
            fill="#0098EA" />
    </g>
    <mask id="mask1_90_18" style="mask-type:luminance" maskUnits="userSpaceOnUse" x="325" y="258"
        width="85" height="24">
        <path d="M325.333 258.667H409.297V281.333H325.333V258.667Z" fill="white" />
    </mask>
    <g mask="url(#mask1_90_18)">
        <path fill-rule="evenodd" clip-rule="evenodd"
            d="M325.349 270.391C325.349 264.589 330.052 259.885 335.854 259.885H398.88C404.682 259.885 409.386 264.589 409.386 270.391C409.386 276.193 404.682 280.896 398.88 280.896H335.854C330.052 280.896 325.349 276.193 325.349 270.391Z"
            fill="white" />
    </g>
    <path fill-rule="evenodd" clip-rule="evenodd"
        d="M367.365 228.37C373.167 228.37 377.87 233.073 377.87 238.875V301.906C377.87 307.708 373.167 312.406 367.365 312.406C361.563 312.406 356.865 307.708 356.865 301.906V238.875C356.865 233.073 361.563 228.37 367.365 228.37Z"
        fill="white" />
    <mask id="mask2_90_18" style="mask-type:luminance" maskUnits="userSpaceOnUse" x="125" y="133"
        width="181" height="181">
        <path d="M125.333 133.641H305.334V313.333H125.333V133.641Z" fill="white" />
    </mask>
    <g mask="url(#mask2_90_18)">
        <path fill-rule="evenodd" clip-rule="evenodd"
            d="M215.047 154.839C177.339 154.839 146.766 185.406 146.766 223.12C146.766 260.828 177.339 291.401 215.047 291.401C252.761 291.401 283.328 260.828 283.328 223.12C283.328 185.406 252.761 154.839 215.047 154.839ZM125.761 223.12C125.761 173.807 165.735 133.828 215.047 133.828C264.36 133.828 304.339 173.807 304.339 223.12C304.339 272.432 264.36 312.406 215.047 312.406C165.735 312.406 125.761 272.432 125.761 223.12Z"
            fill="white" />
    </g>
    <path fill-rule="evenodd" clip-rule="evenodd"
        d="M215.047 312.391C195.104 312.391 175.406 316.76 157.333 325.188C139.26 333.62 123.25 345.901 110.432 361.177C106.703 365.625 100.078 366.203 95.6302 362.474C91.1875 358.745 90.6094 352.12 94.3385 347.677C109.125 330.047 127.599 315.875 148.453 306.146C169.307 296.422 192.036 291.385 215.047 291.385C238.057 291.385 260.792 296.422 281.641 306.146C302.495 315.875 320.969 330.047 335.76 347.677C339.49 352.12 338.906 358.745 334.464 362.474C330.016 366.203 323.391 365.625 319.661 361.177C306.844 345.901 290.839 333.62 272.766 325.188C254.693 316.76 234.99 312.391 215.047 312.391Z"
        fill="white" />
</svg>