<svg width="379" height="58" viewBox="0 0 379 58" fill="none" xmlns="http://www.w3.org/2000/svg">
    <path
        d="M16.449 55.1122C19.102 53.7856 24.9489 51.6836 27.4387 50.204C28.5306 44.7448 29.5408 39.2857 30.8673 33.9081L29.6224 33.204C24.5612 29.9387 16.1326 23.5408 14.9694 22.8367C15.6734 20.8877 17.153 16.8367 17.6939 14.5816C28.0612 8.11223 26.5816 8.88775 28.7653 8.0306C28.1428 5.30612 27.3673 2.33673 26.5816 0L5.45918 4.28571L4.5204 10.5204C4.28571 11.7755 3.42857 16.9898 3.12245 18.551C2.80612 20.5 2.41836 22.449 1.79592 24.3265L1.64286 26.8163L1.71428 26.8979L3.27551 28.8469L6.23469 32.0408L14.653 39.9897L14.7347 40.3061L14.5 43.4183C13.4081 43.5714 14.5 43.4999 0 43.8877C0.0816325 50.5101 0.153062 50.7448 0.153062 51.3673C0.469388 51.5305 0.785713 51.602 1.09184 51.6836C3.89796 52.3877 11.9286 54.3367 14.8163 54.7958L16.449 55.1122Z"
        fill="#0098EA" />
    <path
        d="M42.7919 55.1121C47.2409 54.4081 60.8837 53.5509 63.7612 53.1632L66.1082 51.8366L68.2102 46.5407L68.0572 42.3264C67.6592 33.1326 67.5061 30.4795 66.1796 20.9693L63.3021 16.2959C62.8327 15.5101 62.3633 14.8163 61.9755 14.0306L56.047 10.9897C49.7306 11.3061 44.9755 12.0816 37.9654 12.7857L33.598 16.9183L32.2715 21.204L33.598 47.0815L35.3939 51.2958L42.7919 55.1121ZM44.5164 44.9795C44.4347 44.8264 44.4347 44.6632 44.3531 44.5101C43.8123 42.7958 43.1082 31.102 43.0266 29.306L43.1898 24.8673L43.2613 24.7856L53.7102 21.9081C53.7102 21.9795 55.2715 23.8571 55.2715 23.9285V24.1632C55.1898 26.2754 55.5776 32.1938 56.4347 41.6224L56.598 43.2652L53.2408 43.8877L49.496 44.4285L44.5164 44.9795Z"
        fill="#0098EA" />
    <path
        d="M97.3649 57.9999C97.4364 57.9999 97.4364 57.9183 97.518 57.9183C99.9364 56.5918 106.324 55.4285 108.896 54.4081C108.202 51.7652 107.345 49.7346 102.12 32.0408C103.447 31.1836 104.763 30.0918 105.855 28.9183L109.447 19.7959C109.293 14.3469 104.926 5.69388 95.6506 4.67347C92.8445 4.36735 89.9568 3.9796 87.1507 4.13266L72.3446 6L69.7629 6.46939C69.8446 8.5 70.0793 23.9285 70.0793 27.1326C70.0793 35.3877 69.9262 44.5918 69.6099 51.8367L69.8446 55.8877C73.8241 55.1122 73.5895 54.8775 77.7221 54.8775C79.5078 54.8775 81.2221 54.9591 82.0792 55.1122C82.3139 55.1938 82.5486 55.1938 82.7119 55.2652C83.2527 50.4387 83.6405 45.602 83.7935 40.7653C85.9058 40.3775 88.0078 39.9081 90.0384 39.2857C90.1098 39.2857 90.1098 39.2857 90.1098 39.3673C95.6506 53.551 92.5282 43.8061 97.3649 57.9999ZM83.1711 31.102C82.6303 23.6939 82.0078 18.1633 81.8547 16.9898C83.8752 17.0714 87.069 17.153 89.6404 17.153C91.0486 17.153 92.7629 17.0714 93.5384 16.9184C94.6302 18.3979 95.8037 19.8775 96.8139 21.3571C95.9568 23.2347 94.9466 25.0204 93.7017 26.6632C90.1915 28.1428 86.5282 29.4694 83.1711 31.102Z"
        fill="#0098EA" />
    <path
        d="M121.366 55.1121C125.815 54.4081 139.458 53.5509 142.335 53.1632L144.682 51.8366L146.784 46.5407L146.631 42.3264C146.233 33.1326 146.08 30.4795 144.754 20.9693L141.876 16.2959C141.407 15.5101 140.937 14.8163 140.55 14.0306L134.621 10.9897C128.305 11.3061 123.55 12.0816 116.539 12.7857L112.172 16.9183L110.845 21.204L112.172 47.0815L113.968 51.2958L121.366 55.1121ZM123.09 44.9795C123.009 44.8264 123.009 44.6632 122.927 44.5101C122.386 42.7958 121.682 31.102 121.601 29.306L121.764 24.8673L121.835 24.7856L132.284 21.9081C132.284 21.9795 133.845 23.8571 133.845 23.9285V24.1632C133.764 26.2754 134.152 32.1938 135.009 41.6224L135.172 43.2652L131.815 43.8877L128.07 44.4285L123.09 44.9795Z"
        fill="#0098EA" />
    <path
        d="M159.643 55.1107C159.643 54.2536 160.112 38.6618 160.112 34.8454C160.194 34.8454 160.265 34.7638 160.347 34.7638C160.347 34.9985 165.959 32.4271 168.531 31.4169L178.898 24.9475L179.52 20.1108L180.306 17.621C179.367 14.4169 178.51 11.3046 177.888 8.02914C172.898 5.99853 166.735 3.27404 165.337 2.49854L160.194 2.72302L148.265 3.12098C148.184 8.73322 148.184 14.3455 148.184 20.0291C148.265 28.5291 148.418 45.2128 148.571 53.7026C149.041 53.7026 149.428 53.8658 149.826 53.9372L151.928 54.5699L157.775 54.9577C158.398 55.0291 159.02 55.1107 159.643 55.1107ZM159.877 26.0393C159.724 24.7128 159.561 13.0189 159.561 11.4577C162.837 11.6108 166.112 11.9271 169.306 12.4679C169.306 12.7026 169.775 17.6924 169.775 21.9781L163.775 24.5495L159.877 26.0393Z"
        fill="#0098EA" />
    <path
        d="M194.874 55.0297C197.608 54.642 200.333 54.4073 204.466 54.1012C209.302 51.4481 207.119 53.1624 210.935 48.642L211.557 46.693C212.261 44.2032 213.506 39.0502 213.506 39.0502C213.506 34.693 213.272 30.3257 212.966 26.04C212.261 19.4073 213.2 26.8971 212.027 17.9277L211.557 14.8155C208.751 14.8155 206.955 14.9686 203.925 15.5094L201.659 15.9788C201.894 17.4584 201.976 19.0196 201.976 20.5808L202.986 26.5808L203.057 38.193L202.598 42.642L202.517 43.2644L201.272 46.7746L198.384 47.2338C196.904 47.3971 195.425 47.4685 193.945 47.4685L191.139 43.5706C191.445 39.4481 191.761 37.1012 192.068 34.2236C192.466 30.6318 192.537 27.0502 192.619 23.4685L192.853 15.2747C192.853 15.3563 192.853 14.9686 192.925 14.8869V14.8155C190.353 14.7339 187.864 14.5808 185.292 14.4175C183.578 14.3461 181.782 14.1114 180.068 14.0298V14.1114C179.986 14.2645 179.986 14.4175 179.915 14.5808V14.6522C179.517 22.8359 179.364 25.7236 179.364 27.6726C179.364 33.6726 179.445 35.8563 180.843 44.3563V44.4277L182.17 49.6522L183.18 51.295L185.445 53.5501L187.476 54.5705L191.68 54.7236L194.874 55.0297Z"
        fill="#0098EA" />
    <path
        d="M236.113 55.2642L241.643 55.1111C243.052 55.0295 244.531 54.8764 245.939 54.7234H246.164L246.245 42.7132C243.358 42.4785 240.48 42.3254 237.592 42.3254C235.878 42.3254 234.245 42.4071 232.531 42.4785C236.031 33.9887 242.041 27.0499 246.398 19.101L247.031 17.9275C244.766 15.6724 241.572 9.50915 238.837 6.78467C235.796 7.09079 232.684 7.32548 229.562 7.32548C216.786 7.32548 223.562 6.8561 215.378 6.8561C215.378 8.34589 214.909 15.8255 214.909 18.7132L216.552 18.55C219.276 18.55 220.99 18.3969 223.48 18.7132L227.307 18.7847L231.276 18.6316C228.786 24.2438 224.572 28.8459 221.225 34.1418L215.296 41.9377C216.235 45.1316 217.011 51.6009 217.796 54.8764C219.511 54.8764 221.307 54.8764 223.092 54.9581C227.46 55.1111 231.827 55.1928 236.113 55.2642Z"
        fill="#0098EA" />
    <path
        d="M269.632 55.2642L275.162 55.1111C276.57 55.0295 278.05 54.8764 279.458 54.7234H279.683L279.764 42.7132C276.876 42.4785 273.999 42.3254 271.111 42.3254C269.397 42.3254 267.764 42.4071 266.05 42.4785C269.55 33.9887 275.56 27.0499 279.917 19.101L280.55 17.9275C278.285 15.6724 275.091 9.50915 272.356 6.78467C269.315 7.09079 266.203 7.32548 263.081 7.32548C250.305 7.32548 257.081 6.8561 248.897 6.8561C248.897 8.34589 248.427 15.8255 248.427 18.7132L250.07 18.55C252.795 18.55 254.509 18.3969 256.999 18.7132L260.825 18.7847L264.795 18.6316C262.305 24.2438 258.091 28.8459 254.744 34.1418L248.815 41.9377C249.754 45.1316 250.53 51.6009 251.315 54.8764C253.03 54.8764 254.825 54.8764 256.611 54.9581C260.978 55.1111 265.346 55.1928 269.632 55.2642Z"
        fill="#0098EA" />
    <path
        d="M310.793 56.8252C311.334 44.5089 310.711 56.5905 311.487 44.7436L311.722 43.1824C311.65 43.1824 311.487 43.1824 311.415 43.264L310.242 43.4987L309.701 43.6518H309.313C308.446 43.7334 307.589 43.8048 306.732 43.8048C304.864 43.8048 298.007 43.3355 295.671 43.3355C295.742 40.764 295.742 33.4375 295.742 32.3457C295.742 29.7028 295.671 27.0498 295.436 24.4783C295.507 21.4375 295.905 13.7232 295.905 12.7845C296.058 11.8457 296.058 10.3661 296.13 8.3457C293.64 8.3457 283.742 8.57019 281.946 8.57019C281.946 37.0293 282.497 13.7232 282.497 43.1824C282.415 46.0701 282.262 52.3865 281.946 55.264C283.895 55.1926 285.762 55.1109 287.64 55.1109C296.13 55.1109 301.283 56.2028 308.762 56.7436C309.466 56.8252 310.17 56.8252 310.793 56.8252Z"
        fill="#0098EA" />
    <path
        d="M315.157 55.9686C315.391 55.9686 315.626 55.9686 315.861 55.887C318.269 54.9584 316.483 55.5808 321.779 54.489C321.779 54.489 330.585 53.1625 332.85 53.0094C336.667 52.7747 342.126 52.0706 345.789 51.9176C345.555 49.887 345.401 47.8666 345.085 45.8359C344.381 41.6217 345.871 43.1829 342.901 42.8768C339.32 43.1829 333.32 42.7135 328.952 43.4176C328.952 40.8462 328.565 36.0911 328.565 33.5196C331.912 33.3666 335.269 33.2033 338.697 32.9686C338.616 32.8156 338.616 32.6625 338.616 32.5094C337.993 29.387 338.697 32.2747 337.759 28.4482L336.595 22.836C334.095 22.7645 329.34 22.9992 328.401 23.1523C328.401 20.5809 328.33 15.6727 328.33 15.2033L330.35 14.9686C333.708 14.6523 335.738 14.8156 338.932 14.8156C339.238 11.9278 340.646 5.37681 340.177 5.8462C339.861 5.8462 334.412 5.37681 331.524 5.22375C326.687 4.75436 317.881 5.07069 313.126 4.44824C313.748 13.4074 314.299 22.4482 314.453 31.489C314.534 37.336 314.769 43.1829 315.004 49.0298C315.004 51.2951 315.075 53.6319 315.157 55.9686Z"
        fill="#0098EA" />
    <path
        d="M363.639 55.1122C366.292 53.7856 372.139 51.6836 374.629 50.204C375.721 44.7448 376.731 39.2857 378.057 33.9081L376.813 33.204C371.751 29.9387 363.323 23.5408 362.16 22.8367C362.864 20.8877 364.343 16.8367 364.884 14.5816C375.251 8.11223 373.772 8.88775 375.955 8.0306C375.333 5.30612 374.557 2.33673 373.772 0L352.649 4.28571L351.711 10.5204C351.476 11.7755 350.619 16.9898 350.313 18.551C349.996 20.5 349.609 22.449 348.986 24.3265L348.833 26.8163L348.904 26.8979L350.466 28.8469L353.425 32.0408L361.843 39.9897L361.925 40.3061L361.69 43.4183C360.598 43.5714 361.69 43.4999 347.19 43.8877C347.272 50.5101 347.343 50.7448 347.343 51.3673C347.66 51.5305 347.976 51.602 348.282 51.6836C351.088 52.3877 359.119 54.3367 362.006 54.7958L363.639 55.1122Z"
        fill="#0098EA" />
</svg>