<svg width="100" height="100" viewBox="0 0 100 100" fill="none" xmlns="http://www.w3.org/2000/svg">
    <path
        d="M50 10C27.9442 10 10 27.9442 10 50C10 72.0558 27.9442 90 50 90C72.0558 90 90 72.0558 90 50C90 27.9442 72.0558 10 50 10ZM50 84.6668C30.8845 84.6668 15.3332 69.1155 15.3332 50C15.3332 30.8845 30.8845 15.3332 50 15.3332C69.1155 15.3332 84.6668 30.8845 84.6668 50C84.6668 69.1155 69.1155 84.6668 50 84.6668Z"
        fill="#010101" />
    <path
        d="M45.8817 32.2048C44.84 31.1641 43.1521 31.1641 42.11 32.2048C41.0688 33.246 41.0688 34.9349 42.11 35.9761L56.1339 50L42.11 64.0249C41.0688 65.0661 41.0688 66.7544 42.11 67.7951C42.6308 68.316 43.3137 68.5769 43.9961 68.5769C44.679 68.5769 45.3609 68.316 45.8822 67.7951L61.7912 51.8851C62.8329 50.8439 62.8329 49.156 61.7912 48.1139L45.8817 32.2048Z"
        fill="#010101" />
</svg>